<svg xmlns="http://www.w3.org/2000/svg" xmlns:xlink="http://www.w3.org/1999/xlink" width="1920" zoomAndPan="magnify" viewBox="0 0 1440 374.999991" height="500" preserveAspectRatio="xMidYMid meet" version="1.0"><defs><g/><clipPath id="c18be42cb4"><path d="M 1138 232.859375 L 1249 232.859375 L 1249 361.5625 L 1138 361.5625 Z M 1138 232.859375 " clip-rule="nonzero"/></clipPath><clipPath id="44fed623d0"><path d="M 1232 232.859375 L 1344 232.859375 L 1344 361.5625 L 1232 361.5625 Z M 1232 232.859375 " clip-rule="nonzero"/></clipPath><clipPath id="7e8c405e56"><path d="M 1327 232.859375 L 1439 232.859375 L 1439 361.5625 L 1327 361.5625 Z M 1327 232.859375 " clip-rule="nonzero"/></clipPath><clipPath id="14db16107d"><path d="M 850 232.859375 L 962 232.859375 L 962 361.5625 L 850 361.5625 Z M 850 232.859375 " clip-rule="nonzero"/></clipPath><clipPath id="451e54ad73"><path d="M 945 232.859375 L 1057 232.859375 L 1057 361.5625 L 945 361.5625 Z M 945 232.859375 " clip-rule="nonzero"/></clipPath><clipPath id="6547ef144c"><path d="M 1040 232.859375 L 1152 232.859375 L 1152 361.5625 L 1040 361.5625 Z M 1040 232.859375 " clip-rule="nonzero"/></clipPath><clipPath id="830ff47a6c"><path d="M 569 232.859375 L 681 232.859375 L 681 361.5625 L 569 361.5625 Z M 569 232.859375 " clip-rule="nonzero"/></clipPath><clipPath id="2538a41b5d"><path d="M 664 232.859375 L 776 232.859375 L 776 361.5625 L 664 361.5625 Z M 664 232.859375 " clip-rule="nonzero"/></clipPath><clipPath id="6f98819308"><path d="M 759 232.859375 L 870.875 232.859375 L 870.875 361.5625 L 759 361.5625 Z M 759 232.859375 " clip-rule="nonzero"/></clipPath><clipPath id="5162fbd2ce"><path d="M 288 232.859375 L 400 232.859375 L 400 361.5625 L 288 361.5625 Z M 288 232.859375 " clip-rule="nonzero"/></clipPath><clipPath id="646f7dfe7b"><path d="M 383 232.859375 L 495 232.859375 L 495 361.5625 L 383 361.5625 Z M 383 232.859375 " clip-rule="nonzero"/></clipPath><clipPath id="e5e70831ac"><path d="M 478 232.859375 L 590 232.859375 L 590 361.5625 L 478 361.5625 Z M 478 232.859375 " clip-rule="nonzero"/></clipPath><clipPath id="faacfa7858"><path d="M 1 232.859375 L 113 232.859375 L 113 361.5625 L 1 361.5625 Z M 1 232.859375 " clip-rule="nonzero"/></clipPath><clipPath id="29f300b9fa"><path d="M 96 232.859375 L 208 232.859375 L 208 361.5625 L 96 361.5625 Z M 96 232.859375 " clip-rule="nonzero"/></clipPath><clipPath id="b762141fd4"><path d="M 191 232.859375 L 302.941406 232.859375 L 302.941406 361.5625 L 191 361.5625 Z M 191 232.859375 " clip-rule="nonzero"/></clipPath></defs><g fill="#000000" fill-opacity="1"><g transform="translate(92.144743, 213.529785)"><g><path d="M 125.1875 0.421875 L 133.25 -0.21875 L 137.28125 0.21875 L 143.859375 0 L 149.796875 -1.0625 L 150.4375 -6.15625 L 148.953125 -11.03125 L 145.765625 -18.890625 L 140.046875 -29.921875 L 137.078125 -37.765625 L 132.828125 -45.40625 L 124.765625 -64.71875 L 122.640625 -67.90625 L 120.515625 -71.9375 L 119.25 -76.59375 L 117.34375 -79.78125 L 116.0625 -83.171875 L 111.609375 -91.03125 L 110.125 -95.484375 L 96.125 -124.984375 L 94.84375 -129.21875 L 92.515625 -133.046875 L 91.234375 -136.859375 L 87.203125 -144.28125 L 83.609375 -148.109375 L 76.59375 -150.234375 L 69.8125 -147.890625 L 65.984375 -144.28125 L 64.078125 -140.6875 L 62.59375 -136.4375 L 60.6875 -133.46875 L 52.203125 -113.9375 L 49.859375 -110.765625 L 48.796875 -106.515625 L 46.46875 -102.484375 L 45.203125 -98.671875 L 23.546875 -53.265625 L 22.28125 -48.59375 L 20.15625 -45.40625 L 18.671875 -41.171875 L 14.859375 -34.375 L 11.671875 -25.890625 L 9.34375 -22.921875 L 8.28125 -19.09375 L 4.03125 -10.609375 L 2.765625 -6.359375 L 3.8125 -1.0625 L 8.0625 0.21875 L 16.34375 -0.21875 L 20.578125 0.21875 L 32.46875 -0.21875 L 37.34375 -1.703125 L 41.375 -5.515625 L 45.203125 -12.515625 L 49.234375 -16.546875 L 53.6875 -18.890625 L 57.71875 -18.25 L 66.625 -19.09375 L 70.453125 -18.453125 L 91.234375 -18.671875 L 95.0625 -18.25 L 99.734375 -18.890625 L 104.390625 -16.546875 L 108.421875 -13.15625 L 110.34375 -9.125 L 111.609375 -5.3125 L 115.859375 -2.125 L 120.734375 0 Z M 77.03125 -52.40625 L 72.78125 -53.265625 L 67.90625 -52.828125 L 64.5 -54.3125 L 64.296875 -58.359375 L 74.265625 -81.265625 L 76.59375 -83.171875 L 79.578125 -81.484375 L 89.546875 -58.140625 L 88.6875 -54.3125 L 85.515625 -52.625 Z M 77.03125 -52.40625 "/></g></g></g><g fill="#000000" fill-opacity="1"><g transform="translate(246.17705, 213.529785)"><g><path d="M 15.921875 -6.15625 L 17.828125 -2.328125 L 24.609375 0.21875 L 99.734375 -0.21875 L 105.671875 -2.328125 L 108 -6.15625 L 107.578125 -10.828125 L 107.796875 -15.0625 L 108.21875 -18.890625 L 107.578125 -23.546875 L 108.21875 -27.578125 L 105.453125 -32.25 L 102.0625 -34.375 L 97.390625 -33.734375 L 60.046875 -34.15625 L 55.59375 -36.078125 L 54.3125 -40.734375 L 54.53125 -48.59375 L 53.890625 -52.625 L 54.109375 -57.296875 L 53.6875 -61.53125 L 54.109375 -65.984375 L 53.890625 -76.59375 L 54.53125 -82.546875 L 53.890625 -87.203125 L 54.53125 -91.671875 L 53.890625 -124.765625 L 54.3125 -129.4375 L 53.890625 -139.828125 L 51.78125 -146.203125 L 46.25 -148.75 L 24.1875 -148.3125 L 18.03125 -145.984375 L 15.28125 -140.25 L 16.546875 -129.21875 L 16.125 -125.1875 L 15.484375 -120.734375 L 16.125 -116.484375 L 16.546875 -112.453125 L 15.921875 -107.796875 L 16.125 -103.765625 L 15.703125 -99.515625 L 16.34375 -95.0625 L 15.703125 -91.234375 L 16.125 -87 L 15.484375 -82.96875 L 16.125 -73.84375 L 15.484375 -69.8125 L 16.125 -61.328125 L 15.484375 -57.078125 L 15.703125 -48.59375 L 16.125 -44.765625 L 15.921875 -18.890625 L 16.34375 -14.640625 L 15.484375 -10.609375 Z M 15.921875 -6.15625 "/></g></g></g><g fill="#000000" fill-opacity="1"><g transform="translate(360.322218, 213.529785)"><g><path d="M 15.921875 -6.15625 L 17.828125 -2.328125 L 24.609375 0.21875 L 99.734375 -0.21875 L 105.671875 -2.328125 L 108 -6.15625 L 107.578125 -10.828125 L 107.796875 -15.0625 L 108.21875 -18.890625 L 107.578125 -23.546875 L 108.21875 -27.578125 L 105.453125 -32.25 L 102.0625 -34.375 L 97.390625 -33.734375 L 60.046875 -34.15625 L 55.59375 -36.078125 L 54.3125 -40.734375 L 54.53125 -48.59375 L 53.890625 -52.625 L 54.109375 -57.296875 L 53.6875 -61.53125 L 54.109375 -65.984375 L 53.890625 -76.59375 L 54.53125 -82.546875 L 53.890625 -87.203125 L 54.53125 -91.671875 L 53.890625 -124.765625 L 54.3125 -129.4375 L 53.890625 -139.828125 L 51.78125 -146.203125 L 46.25 -148.75 L 24.1875 -148.3125 L 18.03125 -145.984375 L 15.28125 -140.25 L 16.546875 -129.21875 L 16.125 -125.1875 L 15.484375 -120.734375 L 16.125 -116.484375 L 16.546875 -112.453125 L 15.921875 -107.796875 L 16.125 -103.765625 L 15.703125 -99.515625 L 16.34375 -95.0625 L 15.703125 -91.234375 L 16.125 -87 L 15.484375 -82.96875 L 16.125 -73.84375 L 15.484375 -69.8125 L 16.125 -61.328125 L 15.484375 -57.078125 L 15.703125 -48.59375 L 16.125 -44.765625 L 15.921875 -18.890625 L 16.34375 -14.640625 L 15.484375 -10.609375 Z M 15.921875 -6.15625 "/></g></g></g><g fill="#000000" fill-opacity="1"><g transform="translate(474.467387, 213.529785)"><g/></g></g><g fill="#000000" fill-opacity="1"><g transform="translate(531.964288, 213.529785)"><g><path d="M 10.1875 -6.15625 L 12.3125 -1.703125 L 16.546875 -0.21875 L 79.578125 0.21875 L 83.609375 -1.90625 L 85.9375 -5.734375 L 85.9375 -10.390625 L 85.515625 -14.21875 L 86.140625 -27.15625 L 83.171875 -30.765625 L 68.96875 -35.21875 L 66.625 -39.46875 L 67.046875 -56.859375 L 66.203125 -65.359375 L 67.046875 -74.265625 L 66.625 -80.625 L 67.046875 -87.203125 L 66.625 -91.234375 L 67.046875 -95.484375 L 66.625 -99.9375 L 66.625 -108.859375 L 68.96875 -112.671875 L 73 -115 L 77.65625 -115.21875 L 81.6875 -117.546875 L 84.03125 -121.578125 L 84.03125 -134.109375 L 84.453125 -137.921875 L 84.03125 -142.171875 L 82.328125 -146.40625 L 75.53125 -148.3125 L 48.59375 -148.53125 L 43.921875 -148.109375 L 30.984375 -148.3125 L 26.953125 -148.109375 L 18.671875 -148.53125 L 14 -146.40625 L 11.671875 -141.953125 L 11.671875 -137.921875 L 11.25 -134.3125 L 11.25 -129.640625 L 11.671875 -125.40625 L 11.671875 -121.375 L 13.796875 -117.34375 L 26.734375 -112.890625 L 29.5 -109.0625 L 28.859375 -91.03125 L 29.0625 -87.421875 L 29.703125 -82.546875 L 29.5 -73.84375 L 29.0625 -69.59375 L 29.921875 -61.328125 L 28.859375 -57.078125 L 29.703125 -47.953125 L 29.28125 -39.671875 L 27.15625 -35.015625 L 13.15625 -30.5625 L 10.609375 -26.53125 L 10.1875 -22.484375 Z M 10.1875 -6.15625 "/></g></g></g><g fill="#000000" fill-opacity="1"><g transform="translate(628.287542, 213.529785)"><g><path d="M 125.1875 -3.390625 L 131.34375 -0.640625 L 136.859375 1.0625 L 141.734375 -1.265625 L 143.65625 -5.734375 L 144.71875 -63.4375 L 143.859375 -69.390625 L 144.28125 -74.046875 L 143.4375 -99.515625 L 144.078125 -108 L 143.65625 -112.03125 L 143.65625 -120.515625 L 144.5 -124.765625 L 144.078125 -131.125 L 144.5 -142.171875 L 141.953125 -145.984375 L 137.28125 -148.109375 L 133.046875 -148.53125 L 129.015625 -148.53125 L 124.34375 -148.109375 L 119.890625 -148.75 L 116.0625 -148.3125 L 111.828125 -148.53125 L 106.734375 -146.40625 L 104.609375 -141.953125 L 104.390625 -103.328125 L 105.25 -98.875 L 105.25 -94.84375 L 104.390625 -90.390625 L 104.609375 -81.90625 L 103.546875 -78.515625 L 100.578125 -79.359375 L 91.234375 -88.90625 L 88.0625 -91.453125 L 80.625 -99.09375 L 77.234375 -101.640625 L 74.90625 -104.609375 L 70.453125 -109.28125 L 63.875 -114.796875 L 61.53125 -117.96875 L 57.5 -120.734375 L 55.375 -123.921875 L 51.78125 -126.46875 L 49.015625 -130.078125 L 37.5625 -141.734375 L 29.0625 -147.46875 L 23.34375 -149.171875 L 18.25 -146.625 L 15.484375 -142.59375 L 15.921875 -112.890625 L 15.484375 -108.640625 L 16.125 -99.9375 L 15.703125 -96.125 L 15.921875 -91.671875 L 15.28125 -87.203125 L 16.125 -56.859375 L 15.703125 -53.046875 L 15.703125 -49.015625 L 15.28125 -44.34375 L 15.28125 -40.3125 L 15.921875 -35.859375 L 15.703125 -27.15625 L 16.125 -22.921875 L 15.484375 -14.859375 L 16.125 -10.609375 L 16.125 -6.578125 L 18.03125 -1.90625 L 22.0625 0.421875 L 29.28125 0 L 39.890625 0.640625 L 44.34375 0 L 49.234375 0.421875 L 53.46875 -1.703125 L 55.375 -5.9375 L 54.75 -10.1875 L 55.375 -62.171875 L 54.53125 -66.625 L 56.65625 -69.171875 L 59.40625 -68.53125 L 89.75 -38.828125 L 93.15625 -36.078125 L 113.734375 -15.484375 L 116.484375 -12.09375 L 119.890625 -9.34375 L 122.4375 -6.15625 Z M 125.1875 -3.390625 "/></g></g></g><g fill="#000000" fill-opacity="1"><g transform="translate(788.260496, 213.529785)"><g/></g></g><g fill="#000000" fill-opacity="1"><g transform="translate(845.757397, 213.529785)"><g><path d="M 79.359375 2.546875 L 91.234375 2.328125 L 103.96875 0.640625 L 119.890625 -4.671875 L 126.890625 -8.484375 L 130.078125 -11.03125 L 134.109375 -12.9375 L 140.046875 -18.03125 L 142.796875 -21.859375 L 145.765625 -24.828125 L 155.109375 -39.046875 L 158.296875 -47.109375 L 159.984375 -55.171875 L 160.203125 -58.984375 L 161.265625 -63.234375 L 161.46875 -67.6875 L 162.328125 -73.84375 L 161.6875 -84.453125 L 160.203125 -93.15625 L 154.890625 -109.0625 L 150.859375 -116.921875 L 146.203125 -123.28125 L 140.25 -129.859375 L 134.109375 -135.15625 L 129.21875 -138.5625 L 122.859375 -141.3125 L 119.671875 -143.65625 L 103.328125 -148.75 L 91.03125 -150.859375 L 85.296875 -151.078125 L 62.8125 -147.890625 L 46.890625 -141.953125 L 43.703125 -139.625 L 39.890625 -137.703125 L 32.671875 -132.40625 L 22.28125 -120.3125 L 15.703125 -109.0625 L 12.515625 -101 L 8.90625 -84.65625 L 8.28125 -67.46875 L 8.90625 -63.015625 L 9.96875 -59.203125 L 10.390625 -55.171875 L 12.3125 -47.109375 L 22.0625 -27.796875 L 24.609375 -25.25 L 27.375 -21.859375 L 30.5625 -18.890625 L 32.890625 -16.125 L 39.890625 -10.609375 L 56.4375 -2.125 L 62.59375 0 L 67.265625 0.421875 L 74.90625 2.125 Z M 91.234375 -35.015625 L 79.578125 -35.015625 L 74.90625 -35.640625 L 67.265625 -38.828125 L 63.875 -40.734375 L 58.140625 -45.40625 L 55.375 -48.375 L 52.40625 -52.40625 L 51.34375 -55.8125 L 49.4375 -59.625 L 47.75 -67.46875 L 47.75 -80.421875 L 48.796875 -84.234375 L 49.4375 -88.265625 L 51.140625 -92.09375 L 52.40625 -95.90625 L 57.5 -102.703125 L 68.109375 -109.90625 L 70.875 -110.96875 L 79.140625 -113.09375 L 85.09375 -113.515625 L 95.265625 -112.25 L 99.09375 -111.40625 L 102.90625 -109.703125 L 109.484375 -105.03125 L 117.765625 -96.328125 L 120.3125 -88.265625 L 122.21875 -84.234375 L 122.859375 -80.421875 L 122.4375 -67.46875 L 120.734375 -59.625 L 119.25 -55.8125 L 116.921875 -51.984375 L 115.640625 -48.796875 L 112.671875 -45.40625 L 102.484375 -38.40625 L 98.671875 -37.34375 L 95.484375 -35.859375 Z M 91.234375 -35.015625 "/></g></g></g><g fill="#000000" fill-opacity="1"><g transform="translate(1015.914279, 213.529785)"><g><path d="M 125.1875 -3.390625 L 131.34375 -0.640625 L 136.859375 1.0625 L 141.734375 -1.265625 L 143.65625 -5.734375 L 144.71875 -63.4375 L 143.859375 -69.390625 L 144.28125 -74.046875 L 143.4375 -99.515625 L 144.078125 -108 L 143.65625 -112.03125 L 143.65625 -120.515625 L 144.5 -124.765625 L 144.078125 -131.125 L 144.5 -142.171875 L 141.953125 -145.984375 L 137.28125 -148.109375 L 133.046875 -148.53125 L 129.015625 -148.53125 L 124.34375 -148.109375 L 119.890625 -148.75 L 116.0625 -148.3125 L 111.828125 -148.53125 L 106.734375 -146.40625 L 104.609375 -141.953125 L 104.390625 -103.328125 L 105.25 -98.875 L 105.25 -94.84375 L 104.390625 -90.390625 L 104.609375 -81.90625 L 103.546875 -78.515625 L 100.578125 -79.359375 L 91.234375 -88.90625 L 88.0625 -91.453125 L 80.625 -99.09375 L 77.234375 -101.640625 L 74.90625 -104.609375 L 70.453125 -109.28125 L 63.875 -114.796875 L 61.53125 -117.96875 L 57.5 -120.734375 L 55.375 -123.921875 L 51.78125 -126.46875 L 49.015625 -130.078125 L 37.5625 -141.734375 L 29.0625 -147.46875 L 23.34375 -149.171875 L 18.25 -146.625 L 15.484375 -142.59375 L 15.921875 -112.890625 L 15.484375 -108.640625 L 16.125 -99.9375 L 15.703125 -96.125 L 15.921875 -91.671875 L 15.28125 -87.203125 L 16.125 -56.859375 L 15.703125 -53.046875 L 15.703125 -49.015625 L 15.28125 -44.34375 L 15.28125 -40.3125 L 15.921875 -35.859375 L 15.703125 -27.15625 L 16.125 -22.921875 L 15.484375 -14.859375 L 16.125 -10.609375 L 16.125 -6.578125 L 18.03125 -1.90625 L 22.0625 0.421875 L 29.28125 0 L 39.890625 0.640625 L 44.34375 0 L 49.234375 0.421875 L 53.46875 -1.703125 L 55.375 -5.9375 L 54.75 -10.1875 L 55.375 -62.171875 L 54.53125 -66.625 L 56.65625 -69.171875 L 59.40625 -68.53125 L 89.75 -38.828125 L 93.15625 -36.078125 L 113.734375 -15.484375 L 116.484375 -12.09375 L 119.890625 -9.34375 L 122.4375 -6.15625 Z M 125.1875 -3.390625 "/></g></g></g><g fill="#000000" fill-opacity="1"><g transform="translate(1175.887233, 213.529785)"><g><path d="M 15.28125 -6.15625 L 18.03125 -2.125 L 22.0625 0.21875 L 70.015625 -0.21875 L 73.84375 0.421875 L 86.78125 -0.21875 L 99.734375 0.640625 L 103.765625 0.21875 L 108.21875 -1.90625 L 110.125 -5.9375 L 110.546875 -9.96875 L 110.34375 -23.125 L 110.765625 -27.15625 L 108 -31.40625 L 101.640625 -33.53125 L 73.625 -33.953125 L 69.59375 -33.3125 L 64.921875 -33.734375 L 60.265625 -33.3125 L 55.8125 -35.859375 L 53.890625 -42.4375 L 54.109375 -52.828125 L 56.015625 -57.296875 L 59.84375 -59.625 L 68.109375 -59.625 L 72.359375 -60.046875 L 83.609375 -59.40625 L 89.328125 -59.84375 L 93.78125 -59.40625 L 97.609375 -59.625 L 101.84375 -61.953125 L 103.96875 -65.984375 L 104.390625 -82.75 L 103.96875 -87 L 102.0625 -91.03125 L 98.453125 -93.359375 L 89.96875 -93.578125 L 85.71875 -93.15625 L 81.265625 -93.15625 L 76.390625 -93.578125 L 59.625 -93.359375 L 56.015625 -95.703125 L 53.46875 -99.515625 L 53.046875 -106.09375 L 55.171875 -112.25 L 61.75 -114.15625 L 102.484375 -114.375 L 106.9375 -116.703125 L 109.28125 -120.515625 L 108.859375 -129.21875 L 108.21875 -133.25 L 108.421875 -137.921875 L 109.0625 -141.953125 L 106.9375 -146.203125 L 102.484375 -148.109375 L 85.515625 -148.3125 L 81.6875 -147.890625 L 77.453125 -148.53125 L 68.109375 -148.109375 L 63.875 -148.53125 L 55.59375 -148.3125 L 51.78125 -148.75 L 23.984375 -148.109375 L 17.828125 -146.625 L 15.703125 -141.953125 L 16.125 -133.46875 L 15.28125 -127.3125 L 16.125 -116.484375 L 15.703125 -112.03125 L 16.125 -108.21875 L 16.125 -70.234375 L 15.484375 -65.78125 L 16.125 -57.5 L 15.703125 -49.015625 L 16.34375 -44.5625 L 15.921875 -39.890625 L 16.125 -35.859375 L 15.484375 -32.046875 L 15.921875 -27.15625 L 15.921875 -22.921875 L 16.34375 -14.640625 L 16.125 -10.390625 Z M 15.28125 -6.15625 "/></g></g></g><g clip-path="url(#c18be42cb4)"><path fill="#000000" d="M 1139.449219 353.730469 L 1192.890625 300.453125 C 1194.6875 298.664062 1194.6875 295.757812 1192.890625 293.96875 L 1139.449219 240.691406 C 1136.550781 237.800781 1138.605469 232.859375 1142.703125 232.859375 L 1184.445312 232.859375 C 1185.664062 232.859375 1186.835938 233.34375 1187.695312 234.203125 L 1247.652344 293.96875 C 1249.449219 295.757812 1249.449219 298.664062 1247.652344 300.453125 L 1187.695312 360.21875 C 1186.835938 361.078125 1185.664062 361.5625 1184.445312 361.5625 L 1142.703125 361.5625 C 1138.605469 361.5625 1136.550781 356.621094 1139.449219 353.730469 " fill-opacity="1" fill-rule="nonzero"/></g><g clip-path="url(#44fed623d0)"><path fill="#000000" d="M 1234.316406 353.730469 L 1287.757812 300.453125 C 1289.554688 298.664062 1289.554688 295.757812 1287.757812 293.96875 L 1234.316406 240.691406 C 1231.417969 237.800781 1233.46875 232.859375 1237.570312 232.859375 L 1279.3125 232.859375 C 1280.53125 232.859375 1281.699219 233.34375 1282.5625 234.203125 L 1342.515625 293.96875 C 1344.316406 295.757812 1344.316406 298.664062 1342.515625 300.453125 L 1282.5625 360.21875 C 1281.699219 361.078125 1280.53125 361.5625 1279.3125 361.5625 L 1237.570312 361.5625 C 1233.46875 361.5625 1231.417969 356.621094 1234.316406 353.730469 " fill-opacity="1" fill-rule="nonzero"/></g><g clip-path="url(#7e8c405e56)"><path fill="#000000" d="M 1329.183594 353.730469 L 1382.625 300.453125 C 1384.421875 298.664062 1384.421875 295.757812 1382.625 293.96875 L 1329.183594 240.691406 C 1326.285156 237.800781 1328.339844 232.859375 1332.4375 232.859375 L 1374.179688 232.859375 C 1375.398438 232.859375 1376.570312 233.34375 1377.433594 234.203125 L 1437.386719 293.96875 C 1439.183594 295.757812 1439.183594 298.664062 1437.386719 300.453125 L 1377.433594 360.21875 C 1376.570312 361.078125 1375.398438 361.5625 1374.179688 361.5625 L 1332.4375 361.5625 C 1328.339844 361.5625 1326.285156 356.621094 1329.183594 353.730469 " fill-opacity="1" fill-rule="nonzero"/></g><g clip-path="url(#14db16107d)"><path fill="#000000" d="M 852.339844 353.730469 L 905.78125 300.453125 C 907.578125 298.664062 907.578125 295.757812 905.78125 293.96875 L 852.339844 240.691406 C 849.441406 237.800781 851.496094 232.859375 855.59375 232.859375 L 897.335938 232.859375 C 898.554688 232.859375 899.726562 233.34375 900.589844 234.203125 L 960.542969 293.96875 C 962.339844 295.757812 962.339844 298.664062 960.542969 300.453125 L 900.589844 360.21875 C 899.726562 361.078125 898.554688 361.5625 897.335938 361.5625 L 855.59375 361.5625 C 851.496094 361.5625 849.441406 356.621094 852.339844 353.730469 " fill-opacity="1" fill-rule="nonzero"/></g><g clip-path="url(#451e54ad73)"><path fill="#000000" d="M 947.207031 353.730469 L 1000.648438 300.453125 C 1002.445312 298.664062 1002.445312 295.757812 1000.648438 293.96875 L 947.207031 240.691406 C 944.308594 237.800781 946.363281 232.859375 950.460938 232.859375 L 992.203125 232.859375 C 993.421875 232.859375 994.59375 233.34375 995.457031 234.203125 L 1055.410156 293.96875 C 1057.207031 295.757812 1057.207031 298.664062 1055.410156 300.453125 L 995.457031 360.21875 C 994.59375 361.078125 993.421875 361.5625 992.203125 361.5625 L 950.460938 361.5625 C 946.363281 361.5625 944.308594 356.621094 947.207031 353.730469 " fill-opacity="1" fill-rule="nonzero"/></g><g clip-path="url(#6547ef144c)"><path fill="#000000" d="M 1042.074219 353.730469 L 1095.515625 300.453125 C 1097.3125 298.664062 1097.3125 295.757812 1095.515625 293.96875 L 1042.074219 240.691406 C 1039.175781 237.800781 1041.230469 232.859375 1045.328125 232.859375 L 1087.070312 232.859375 C 1088.289062 232.859375 1089.460938 233.34375 1090.324219 234.203125 L 1150.277344 293.96875 C 1152.074219 295.757812 1152.074219 298.664062 1150.277344 300.453125 L 1090.324219 360.21875 C 1089.460938 361.078125 1088.289062 361.5625 1087.070312 361.5625 L 1045.328125 361.5625 C 1041.230469 361.5625 1039.175781 356.621094 1042.074219 353.730469 " fill-opacity="1" fill-rule="nonzero"/></g><g clip-path="url(#830ff47a6c)"><path fill="#000000" d="M 570.984375 353.730469 L 624.425781 300.453125 C 626.222656 298.664062 626.222656 295.757812 624.425781 293.96875 L 570.984375 240.691406 C 568.085938 237.800781 570.136719 232.859375 574.238281 232.859375 L 615.976562 232.859375 C 617.199219 232.859375 618.367188 233.34375 619.230469 234.203125 L 679.183594 293.96875 C 680.980469 295.757812 680.980469 298.664062 679.183594 300.453125 L 619.230469 360.21875 C 618.367188 361.078125 617.199219 361.5625 615.976562 361.5625 L 574.238281 361.5625 C 570.136719 361.5625 568.085938 356.621094 570.984375 353.730469 " fill-opacity="1" fill-rule="nonzero"/></g><g clip-path="url(#2538a41b5d)"><path fill="#000000" d="M 665.851562 353.730469 L 719.292969 300.453125 C 721.089844 298.664062 721.089844 295.757812 719.292969 293.96875 L 665.851562 240.691406 C 662.953125 237.800781 665.003906 232.859375 669.105469 232.859375 L 710.84375 232.859375 C 712.066406 232.859375 713.234375 233.34375 714.097656 234.203125 L 774.050781 293.96875 C 775.847656 295.757812 775.847656 298.664062 774.050781 300.453125 L 714.097656 360.21875 C 713.234375 361.078125 712.066406 361.5625 710.84375 361.5625 L 669.105469 361.5625 C 665.003906 361.5625 662.953125 356.621094 665.851562 353.730469 " fill-opacity="1" fill-rule="nonzero"/></g><g clip-path="url(#6f98819308)"><path fill="#000000" d="M 760.71875 353.730469 L 814.160156 300.453125 C 815.957031 298.664062 815.957031 295.757812 814.160156 293.96875 L 760.71875 240.691406 C 757.820312 237.800781 759.871094 232.859375 763.972656 232.859375 L 805.710938 232.859375 C 806.933594 232.859375 808.101562 233.34375 808.964844 234.203125 L 868.917969 293.96875 C 870.714844 295.757812 870.714844 298.664062 868.917969 300.453125 L 808.964844 360.21875 C 808.101562 361.078125 806.933594 361.5625 805.710938 361.5625 L 763.972656 361.5625 C 759.871094 361.5625 757.820312 356.621094 760.71875 353.730469 " fill-opacity="1" fill-rule="nonzero"/></g><g clip-path="url(#5162fbd2ce)"><path fill="#000000" d="M 290.179688 353.730469 L 343.621094 300.453125 C 345.417969 298.664062 345.417969 295.757812 343.621094 293.96875 L 290.179688 240.691406 C 287.28125 237.800781 289.332031 232.859375 293.433594 232.859375 L 335.171875 232.859375 C 336.394531 232.859375 337.5625 233.34375 338.425781 234.203125 L 398.378906 293.96875 C 400.175781 295.757812 400.175781 298.664062 398.378906 300.453125 L 338.425781 360.21875 C 337.5625 361.078125 336.394531 361.5625 335.171875 361.5625 L 293.433594 361.5625 C 289.332031 361.5625 287.28125 356.621094 290.179688 353.730469 " fill-opacity="1" fill-rule="nonzero"/></g><g clip-path="url(#646f7dfe7b)"><path fill="#000000" d="M 385.046875 353.730469 L 438.488281 300.453125 C 440.285156 298.664062 440.285156 295.757812 438.488281 293.96875 L 385.046875 240.691406 C 382.148438 237.800781 384.199219 232.859375 388.300781 232.859375 L 430.039062 232.859375 C 431.261719 232.859375 432.429688 233.34375 433.292969 234.203125 L 493.246094 293.96875 C 495.042969 295.757812 495.042969 298.664062 493.246094 300.453125 L 433.292969 360.21875 C 432.429688 361.078125 431.261719 361.5625 430.039062 361.5625 L 388.300781 361.5625 C 384.199219 361.5625 382.148438 356.621094 385.046875 353.730469 " fill-opacity="1" fill-rule="nonzero"/></g><g clip-path="url(#e5e70831ac)"><path fill="#000000" d="M 479.914062 353.730469 L 533.355469 300.453125 C 535.152344 298.664062 535.152344 295.757812 533.355469 293.96875 L 479.914062 240.691406 C 477.015625 237.800781 479.066406 232.859375 483.167969 232.859375 L 524.90625 232.859375 C 526.128906 232.859375 527.296875 233.34375 528.160156 234.203125 L 588.113281 293.96875 C 589.910156 295.757812 589.910156 298.664062 588.113281 300.453125 L 528.160156 360.21875 C 527.296875 361.078125 526.128906 361.5625 524.90625 361.5625 L 483.167969 361.5625 C 479.066406 361.5625 477.015625 356.621094 479.914062 353.730469 " fill-opacity="1" fill-rule="nonzero"/></g><g clip-path="url(#faacfa7858)"><path fill="#000000" d="M 3.050781 353.730469 L 56.492188 300.453125 C 58.289062 298.664062 58.289062 295.757812 56.492188 293.96875 L 3.050781 240.691406 C 0.152344 237.800781 2.207031 232.859375 6.304688 232.859375 L 48.046875 232.859375 C 49.265625 232.859375 50.4375 233.34375 51.300781 234.203125 L 111.253906 293.96875 C 113.050781 295.757812 113.050781 298.664062 111.253906 300.453125 L 51.300781 360.21875 C 50.4375 361.078125 49.265625 361.5625 48.046875 361.5625 L 6.304688 361.5625 C 2.207031 361.5625 0.152344 356.621094 3.050781 353.730469 " fill-opacity="1" fill-rule="nonzero"/></g><g clip-path="url(#29f300b9fa)"><path fill="#000000" d="M 97.917969 353.730469 L 151.359375 300.453125 C 153.15625 298.664062 153.15625 295.757812 151.359375 293.96875 L 97.917969 240.691406 C 95.019531 237.800781 97.074219 232.859375 101.171875 232.859375 L 142.914062 232.859375 C 144.132812 232.859375 145.304688 233.34375 146.167969 234.203125 L 206.121094 293.96875 C 207.917969 295.757812 207.917969 298.664062 206.121094 300.453125 L 146.167969 360.21875 C 145.304688 361.078125 144.132812 361.5625 142.914062 361.5625 L 101.171875 361.5625 C 97.074219 361.5625 95.019531 356.621094 97.917969 353.730469 " fill-opacity="1" fill-rule="nonzero"/></g><g clip-path="url(#b762141fd4)"><path fill="#000000" d="M 192.785156 353.730469 L 246.226562 300.453125 C 248.023438 298.664062 248.023438 295.757812 246.226562 293.96875 L 192.785156 240.691406 C 189.886719 237.800781 191.941406 232.859375 196.039062 232.859375 L 237.78125 232.859375 C 239 232.859375 240.171875 233.34375 241.035156 234.203125 L 300.988281 293.96875 C 302.785156 295.757812 302.785156 298.664062 300.988281 300.453125 L 241.035156 360.21875 C 240.171875 361.078125 239 361.5625 237.78125 361.5625 L 196.039062 361.5625 C 191.941406 361.5625 189.886719 356.621094 192.785156 353.730469 " fill-opacity="1" fill-rule="nonzero"/></g></svg>