<svg xmlns="http://www.w3.org/2000/svg" xmlns:xlink="http://www.w3.org/1999/xlink" width="1080" zoomAndPan="magnify" viewBox="0 0 810 809.999993" height="1080" preserveAspectRatio="xMidYMid meet" version="1.0"><defs><clipPath id="0818c02a27"><path d="M 503.5 405 L 514.5 405 L 514.5 470 L 503.5 470 Z M 503.5 405 " clip-rule="nonzero"/></clipPath><clipPath id="54d72551e5"><path d="M 232.371094 508 L 577.371094 508 L 577.371094 806 L 232.371094 806 Z M 232.371094 508 " clip-rule="nonzero"/></clipPath><clipPath id="5742cf6f18"><path d="M 232.371094 255 L 577.371094 255 L 577.371094 552 L 232.371094 552 Z M 232.371094 255 " clip-rule="nonzero"/></clipPath><clipPath id="08f5c6ca8a"><path d="M 232.371094 1 L 577.371094 1 L 577.371094 299 L 232.371094 299 Z M 232.371094 1 " clip-rule="nonzero"/></clipPath></defs><g clip-path="url(#0818c02a27)"><path fill="#ffffff" d="M 503.5 405 L 514.5 405 L 514.5 470.011719 L 503.5 470.011719 Z M 503.5 405 " fill-opacity="1" fill-rule="nonzero"/></g><g clip-path="url(#54d72551e5)"><path fill="#000000" d="M 556.378906 801.90625 L 413.566406 658.992188 C 408.765625 654.1875 400.980469 654.1875 396.175781 658.992188 L 253.363281 801.90625 C 245.613281 809.660156 232.371094 804.167969 232.371094 793.207031 L 232.371094 681.582031 C 232.371094 678.316406 233.664062 675.1875 235.972656 672.882812 L 396.175781 512.550781 C 400.976562 507.746094 408.765625 507.746094 413.566406 512.550781 L 573.769531 672.882812 C 576.078125 675.1875 577.371094 678.316406 577.371094 681.582031 L 577.371094 793.207031 C 577.371094 804.167969 564.128906 809.660156 556.378906 801.90625 " fill-opacity="1" fill-rule="nonzero"/></g><g clip-path="url(#5742cf6f18)"><path fill="#000000" d="M 556.378906 548.210938 L 413.566406 405.296875 C 408.765625 400.492188 400.980469 400.492188 396.175781 405.296875 L 253.363281 548.210938 C 245.613281 555.960938 232.371094 550.472656 232.371094 539.507812 L 232.371094 427.882812 C 232.371094 424.621094 233.664062 421.492188 235.972656 419.183594 L 396.175781 258.855469 C 400.976562 254.046875 408.765625 254.046875 413.566406 258.855469 L 573.769531 419.183594 C 576.078125 421.492188 577.371094 424.621094 577.371094 427.882812 L 577.371094 539.507812 C 577.371094 550.472656 564.128906 555.960938 556.378906 548.210938 " fill-opacity="1" fill-rule="nonzero"/></g><g clip-path="url(#08f5c6ca8a)"><path fill="#000000" d="M 556.378906 294.511719 L 413.566406 151.597656 C 408.765625 146.792969 400.980469 146.792969 396.175781 151.597656 L 253.363281 294.511719 C 245.613281 302.261719 232.371094 296.773438 232.371094 285.8125 L 232.371094 174.183594 C 232.371094 170.921875 233.664062 167.792969 235.972656 165.484375 L 396.175781 5.15625 C 400.976562 0.347656 408.765625 0.347656 413.566406 5.15625 L 573.769531 165.484375 C 576.078125 167.792969 577.371094 170.921875 577.371094 174.183594 L 577.371094 285.8125 C 577.371094 296.773438 564.128906 302.261719 556.378906 294.511719 " fill-opacity="1" fill-rule="nonzero"/></g></svg>